<svg width="500" height="579" viewBox="0 0 500 579" fill="none" xmlns="http://www.w3.org/2000/svg">
<rect y="79" width="500" height="500" rx="80" fill="#FF654E"/>
<path d="M377.2 250.8C378.533 258.8 379.467 267.467 380 276.8C380.8 286.133 380.8 297.467 380 310.8C379.2 323.867 377.333 340 374.4 359.2C370.4 385.067 359.867 406.8 342.8 424.4C325.733 441.733 304.267 453.067 278.4 458.4C271.2 460 262.8 461.2 253.2 462C243.6 462.533 234 463.067 224.4 463.6C215.067 463.867 206.667 464.267 199.2 464.8C192.533 466.133 184.533 467.067 175.2 467.6C165.867 468.133 157.067 468 148.8 467.2C140.533 466.4 134.533 464.933 130.8 462.8C132.933 459.067 134.667 453.467 136 446C137.333 438.267 138.4 429.867 139.2 420.8C140 411.733 140.267 403.067 140 394.8L138.8 259.2C138.8 248.267 138.667 238.267 138.4 229.2C138.4 220.133 138.133 213.067 137.6 208C137.067 202.4 134.933 197.467 131.2 193.2C127.733 188.933 125.2 184.667 123.6 180.4C119.333 168.667 117.467 157.2 118 146C119.333 146.267 122.267 146.667 126.8 147.2C131.6 147.467 137.067 147.867 143.2 148.4C149.867 148.667 160.267 149.067 174.4 149.6C188.8 150.133 203.467 150.667 218.4 151.2C218.4 151.2 220.533 151.333 224.8 151.6C229.333 151.6 234.933 151.867 241.6 152.4C248.267 152.933 255.2 153.733 262.4 154.8C269.6 155.6 275.867 156.667 281.2 158C298.533 162.533 313.067 168.8 324.8 176.8C336.8 184.533 346.4 192.933 353.6 202C361.067 211.067 366.667 220 370.4 228.8C374.133 237.333 376.4 244.667 377.2 250.8ZM237.6 388C248.533 385.333 258.8 380.133 268.4 372.4C278.267 364.4 286 353.733 291.6 340.4C297.467 326.8 299.6 310.267 298 290.8C296.133 265.467 289.467 247.867 278 238C266.8 228.133 252.133 223.067 234 222.8C228.933 222.533 224.933 225.867 222 232.8C219.067 239.733 217.067 250.933 216 266.4C215.467 276.533 215.067 284.133 214.8 289.2C214.533 294 214.4 298 214.4 301.2C214.667 304.4 214.667 308.533 214.4 313.6C214.4 313.6 214.4 316 214.4 320.8C214.667 325.6 215.067 331.6 215.6 338.8C216.133 345.733 216.8 352.933 217.6 360.4C218.4 367.6 219.333 373.733 220.4 378.8C221.733 384.4 224.267 387.6 228 388.4C231.733 388.933 234.933 388.8 237.6 388Z" fill="white"/>
</svg>
